<svg width="22" height="18" viewBox="0 0 22 18" fill="none" xmlns="http://www.w3.org/2000/svg">
<path d="M21.5 2.77258C20.7271 3.10051 19.8978 3.32292 19.0264 3.42221C19.9161 2.91205 20.5972 2.10287 20.92 1.14164C20.0854 1.61408 19.1642 1.95713 18.1826 2.14309C17.3966 1.34019 16.2785 0.840088 15.0384 0.840088C12.6593 0.840088 10.7303 2.68715 10.7303 4.96394C10.7303 5.28685 10.7683 5.60223 10.8418 5.90382C7.26201 5.73165 4.08768 4.08941 1.96314 1.59397C1.59176 2.20213 1.38049 2.91077 1.38049 3.66721C1.38049 5.09839 2.14161 6.36117 3.2964 7.09997C2.5904 7.07737 1.92639 6.89141 1.34508 6.5823V6.63381C1.34508 8.63165 2.83056 10.299 4.80024 10.6785C4.43936 10.7715 4.05882 10.823 3.66514 10.823C3.38696 10.823 3.11794 10.7966 2.85417 10.7464C3.40267 12.3861 4.99315 13.5785 6.87756 13.6112C5.40388 14.7169 3.54573 15.3741 1.52749 15.3741C1.17976 15.3741 0.837236 15.354 0.5 15.3176C2.40671 16.4899 4.67036 17.1734 7.10327 17.1734C15.028 17.1734 19.3597 10.8884 19.3597 5.43766L19.3453 4.90365C20.1917 4.32561 20.9239 3.59937 21.5 2.77258Z" fill="#066F14"/>
</svg>
